<?xml version="1.0" encoding="UTF-8"?><svg xmlns="http://www.w3.org/2000/svg" viewBox="0 0 251.23 251.23"><defs><style>.d{fill:#fff;}.e{fill:#2514cf;}</style></defs><g id="a"/><g id="b"><g id="c"><g><rect class="e" x="0" y="0" width="251.23" height="251.23" rx="125.62" ry="125.62"/><g><path class="d" d="M154.92,171.55l-73.74-42.57,13.24-22.93c1.35-2.34,.54-5.33-1.79-6.67l-5.76-3.33c-2.34-1.35-5.32-.55-6.67,1.79l-38.02,65.85c-1.35,2.34-.55,5.32,1.79,6.67l37.92,21.89c5.93,3.42,13.45,2.27,18.1-2.77l20.61-18.79,26.11,15.08c2.34,1.35,5.32,.55,6.67-1.79l3.33-5.76c1.34-2.32,.55-5.32-1.79-6.67Zm-67.93-62.3c-.57,.98-1.83,1.31-2.8,.75l-2.21-1.28c-.98-.57-1.32-1.82-.75-2.8l2.1-3.64c.56-.97,1.82-1.32,2.8-.75l2.21,1.28c.97,.56,1.31,1.83,.75,2.8l-2.1,3.64Zm62.98,70.39c-.57,.98-1.82,1.33-2.81,.76l-3.64-2.1c-.97-.56-1.31-1.83-.74-2.81l1.27-2.2c.57-.98,1.83-1.31,2.8-.75l3.64,2.1c.98,.57,1.32,1.82,.75,2.8l-1.27,2.2Z"/><path class="d" d="M96.32,79.69l73.74,42.57-13.24,22.93c-1.35,2.34-.54,5.33,1.79,6.67l5.76,3.33c2.34,1.35,5.32,.55,6.67-1.79l38.02-65.85c1.35-2.34,.55-5.32-1.79-6.67l-37.92-21.89c-5.93-3.42-13.45-2.27-18.1,2.77l-20.61,18.79-26.11-15.08c-2.34-1.35-5.32-.55-6.67,1.79l-3.33,5.76c-1.34,2.32-.55,5.32,1.79,6.67Zm67.93,62.3c.57-.98,1.83-1.31,2.8-.75l2.21,1.28c.98,.57,1.32,1.82,.75,2.8l-2.1,3.64c-.56,.97-1.82,1.32-2.8,.75l-2.21-1.28c-.97-.56-1.31-1.83-.75-2.8l2.1-3.64Zm-62.98-70.39c.57-.98,1.82-1.33,2.81-.76l3.64,2.1c.97,.56,1.31,1.83,.74,2.81l-1.27,2.2c-.57,.98-1.83,1.31-2.8,.75l-3.64-2.1c-.98-.57-1.32-1.82-.75-2.8l1.27-2.2Z"/></g></g></g></g></svg>